<!DOCTYPE svg PUBLIC "-//W3C//DTD SVG 1.1//EN" "http://www.w3.org/Graphics/SVG/1.1/DTD/svg11.dtd">
<!-- Uploaded to: SVG Repo, www.svgrepo.com, Transformed by: SVG Repo Mixer Tools -->
<svg width="800px" height="800px" viewBox="0 0 1024 1024" enable-background="new 0 0 1024 1024" id="heart-shirt" version="1.1" xml:space="preserve" xmlns="http://www.w3.org/2000/svg" xmlns:xlink="http://www.w3.org/1999/xlink" fill="#000000">
<g id="SVGRepo_bgCarrier" stroke-width="0"/>
<g id="SVGRepo_tracerCarrier" stroke-linecap="round" stroke-linejoin="round"/>
<g id="SVGRepo_iconCarrier"> <g> <g id="heart-shirt-label"> <rect fill="#b04f4f" height="1024" width="1024"/> </g> <g id="heart-shirt-heart-shirt"> <g> <path d="M671.8203,763.9395H352.1797c-5.6597,0-10.2398-4.5791-10.2398-10.2393v-271.46l-47.3798,12.2295 c-4.3804,1.1104-8.9605-0.7392-11.3003-4.5693L216.54,380.7598c-1.4404-2.3697-1.8701-5.2198-1.1699-7.9097 c0.69-2.6899,2.4502-4.9702,4.8701-6.3403L405.98,261.3901c2.6299-1.4799,5.79-1.75,8.6196-0.6801 c2.8301,1.0498,5.0503,3.31,6.0703,6.1601c10.9502,30.7998,48.5098,52.3101,91.3301,52.3101 c42.8101,0,80.3594-21.5103,91.3105-52.3101c1.0196-2.8501,3.2393-5.1103,6.0694-6.1601c2.8301-1.0801,6-0.8096,8.6201,0.6801 l185.7598,105.1197c2.4199,1.3701,4.1797,3.6504,4.8701,6.3403c0.7002,2.6899,0.2705,5.54-1.1699,7.9097l-66.7198,109.1406 c-2.3506,3.8398-6.9502,5.6992-11.3007,4.5693l-47.379-12.2295v271.46C682.0605,759.3604,677.4805,763.9395,671.8203,763.9395 L671.8203,763.9395z M362.4199,743.46h299.1602V469.0195c0-3.1699,1.4697-6.1591,3.9697-8.0996 c2.5-1.9297,5.7705-2.5996,8.8301-1.8095l52.8398,13.6396l57.2404-93.6299l-166.7705-94.3799 c-17.8194,32.8399-59.3794,54.92-105.6895,54.92c-46.3203,0-87.8901-22.0801-105.71-54.92l-166.75,94.3799l57.2403,93.6299 l52.8398-13.6396c3.0498-0.7999,6.3301-0.1202,8.8301,1.8095c2.5,1.9405,3.9697,4.9297,3.9697,8.0996V743.46L362.4199,743.46z" fill="#FFFFFF"/> </g> <g> <path d="M512,381.02c-67.7402,0-121.8301-41.2798-138.3301-80.1196c-2.2099-5.2002,0.2197-11.2105,5.4297-13.4307 c5.1602-2.1797,11.2105,0.2105,13.4307,5.4307C406.6499,326.1504,455.2002,360.54,512,360.54s105.3496-34.3896,119.4697-67.6396 c2.2198-5.2202,8.2705-7.6104,13.4307-5.4307c5.209,2.2202,7.6396,8.2305,5.4297,13.4307 C633.8301,339.7402,579.7402,381.02,512,381.02L512,381.02z" fill="#FFFFFF"/> </g> <g> <path d="M512.5601,609.8799c-2.3804,0-4.7603-0.8194-6.6802-2.4795l-61.1397-52.6006 c-13.6904-12.1103-22.9702-27.1396-26.9702-43.5596c-3.0102-12.4902-1.8301-20.0097-1.56-21.3906 c2.79-30.4697,26-53.3096,55.0498-53.3096c15.9502,0,30.83,6.8897,41.1601,18.4102 C522.5,443.3203,536.8896,436.54,552.7197,436.54c29.1001,0,52.3301,22.8399,55.2404,54.3204 c0.1201,0.3701,1.3094,7.8994-1.7296,20.3798c-4.041,16.5-13.3506,31.5293-26.9203,43.4903l-60,52.6093 C517.3799,609.0303,514.9697,609.8799,512.5601,609.8799L512.5601,609.8799z M471.2598,457.0195 c-20.6602,0-33.1499,17.9707-34.7998,35.7305c-0.1202,0.8398-0.7701,5.4395,1.2099,13.6699 c3,12.3203,10.1001,23.7207,20.5401,32.9502l54.29,46.71l53.29-46.7403c10.3999-9.1601,17.5098-20.5594,20.5401-32.9492 c2-8.2109,1.3496-12.8008,1.3398-12.8506c-1.75-18.5498-14.2402-36.5205-34.9503-36.5205 c-13.5898,0-25.0898,7.8008-30.7695,20.8809c-1.6201,3.7295-5.46,5.8691-9.3901,6.1601c-4.0601,0-7.7403-2.4003-9.3702-6.1103 C497.5898,465.2305,485.0601,457.0195,471.2598,457.0195L471.2598,457.0195z" fill="#FFFFFF"/> </g> </g> </g> </g>
</svg>