<?xml version="1.0" encoding="utf-8"?>
<!-- Generator: Adobe Illustrator 26.0.3, SVG Export Plug-In . SVG Version: 6.00 Build 0)  -->
<svg version="1.1" id="Ñëîé_1" xmlns="http://www.w3.org/2000/svg" xmlns:xlink="http://www.w3.org/1999/xlink" x="0px" y="0px"
	 viewBox="0 0 708.66 456.38" style="enable-background:new 0 0 708.66 456.38;" xml:space="preserve">
<path d="M355.52,200.78c0.32-0.82,0.56-1.65,0.85-2.49c0.43-1.1,0.96-2.17,1.13-3.36c0.17-1.51,0.37-3.01,0.45-4.53
	c0.02-1.62,0.01-3.24,0.1-4.86c0.15-0.97,0.33-1.93,0.53-2.89c0.54-1.68,1.01-3.38,1.42-5.09c0.38-1.5,0.72-3,1.06-4.51
	c0.64-2.26,1.24-4.51,1.75-6.79c0.64-2.78,1.29-5.54,1.91-8.31c0.68-2.97,1.26-5.98,1.78-8.98c0.36-2.02,0.69-4.05,0.93-6.09
	c0.02-0.11,0.05-0.22,0.07-0.33c0.7-2.81,1.1-5.68,1.44-8.54c0.28-2.19,0.18-4.37-0.26-6.53c-0.28-1.17-0.63-2.23-1.88-2.6
	c-0.32-0.06-0.6-0.04-0.86,0.04c-0.02,0-0.03,0-0.05,0c-1.39,0.45-2.3,1.59-3.03,2.81c-1.26,2.09-2.31,4.29-3.02,6.64
	c-0.93,2.82-1.84,5.66-2.4,8.59c-0.64,2.96-1.21,5.95-1.86,8.92c-0.63,2.99-1.33,6-1.82,9.02c-0.45,2.91-0.82,5.82-1.33,8.73
	c-0.52,2.78-1.13,5.56-1.88,8.29c-0.01,0.02-0.01,0.05-0.02,0.07c0.02-0.2,0.04-0.39,0.06-0.59c0.59-2.96,1.1-5.94,1.4-8.94
	c0.25-2.35,0.46-4.7,0.63-7.05c0.33-2.38,0.61-4.77,0.8-7.18c0.17-3.51,0.3-7.04,0.34-10.56c0.03-3.08,0.1-6.17,0.2-9.25
	c0.04-2.54-0.1-5.09-0.33-7.61c-0.2-1.84-0.66-3.1-1.82-4.51c-0.45-0.43-0.77-1.06-1.38-1.29c-0.93-0.63-2.37,1.37-2.79,1.93
	c-0.99,1.53-1.72,3.2-2.37,4.9c-1.03,2.5-1.67,5.13-2.32,7.74c-0.48,2.22-0.91,4.44-1.32,6.66c-0.65-2.45-1.35-4.88-2.19-7.26
	c-1.05-3.06-2.09-6.13-3.61-8.99c-1.06-1.89-2.3-3.75-4.24-4.85c-0.25-0.02-0.5-0.04-0.76-0.07c-0.14-0.06-0.27-0.09-0.4-0.05
	c-0.01,0-0.03,0.01-0.04,0.01c-0.24-0.02-0.48-0.04-0.73-0.04c-1.04-0.02-1.7,1.13-2.15,1.88c-1.06,2.03-1.91,4.19-2.34,6.44
	c-0.61,3.46-0.87,6.97-0.58,10.48c0.21,3.86,0.58,7.7,0.92,11.55c0.33,4.11,0.56,8.22,0.78,12.35c0.22,4.7,0.46,9.4,0.96,14.09
	c0.56,4.89,1.29,9.8,3.1,14.43c1.45,3.45,3.1,6.86,5.33,9.9c1.05,1.39,2.16,2.91,3.81,3.66l0.91-0.07c1.36-0.98,1.89-2.65,2.41-4.18
	c0.08-0.25,0.15-0.51,0.22-0.77c0.24,0.12,0.5,0.21,0.78,0.27c0.7-0.08,1.39-0.12,2.07-0.23c0.22-0.04,0.41-0.15,0.62-0.24
	c1.07-0.49,1.97-1.22,2.85-2.01c1.32-1.27,2.43-2.73,3.48-4.23c0.03,0.31,0.05,0.62,0.08,0.94c0.14,1.08,0.48,2.12,0.46,3.2
	c-0.06,0.85-0.35,1.64-0.6,2.43c-0.25,0.71-0.49,1.43-0.74,2.15c-0.17,0.59-0.56,1.07-0.91,1.56c-0.33,0.34-0.44,0.74-0.55,1.18
	c0,0.04,0,0.07-0.02,0.09l1,0.03l0.22-0.09c0.55-0.3,1.07-0.65,1.4-1.21c0.4-0.55,0.82-1.07,1.25-1.59
	C354.87,202.28,355.23,201.54,355.52,200.78z M349.75,121.07c-0.01,0.01-0.02,0.02-0.03,0.02c0,0-0.01,0-0.01,0
	C349.69,121.09,349.74,121.07,349.75,121.07z M345.11,200.68c-0.03,0-0.04-0.02-0.04-0.04c0.1,0,0.21-0.01,0.31-0.01
	C345.29,200.65,345.2,200.7,345.11,200.68z"/>
<g>
	<path d="M80.99,173.34v-19.98h-3.52v-7.95h3.52v-0.96c0-3.06,1.19-7.15,3.8-9.48c2.55-2.33,5.96-2.95,8.46-2.95
		c1.87,0,3.29,0.17,4.65,0.45v8.17c-0.79-0.17-1.65-0.28-2.72-0.28c-2.27,0-3.58,1.53-3.58,3.58v1.48h5.22v7.95h-5.11v19.98H80.99z"
		/>
	<path d="M127.64,166.42c0,2.95,0.17,5.68,0.45,6.92h-9.65l-0.57-2.38h-0.23c-2.04,2.27-4.99,3.06-8.17,3.06
		c-6.13,0-9.76-4.26-9.76-8.8c0-7.49,6.7-10.95,17.25-10.95v-0.17c0-1.02-0.68-2.27-4.88-2.27c-3.12,0-6.64,1.19-8.46,2.21
		l-1.87-6.7c1.82-0.96,5.96-2.61,12.2-2.61c9.59,0,13.68,4.82,13.68,12.31V166.42z M117.31,160.75c-4.71,0-6.98,1.19-6.98,3.46
		c0,1.59,1.08,2.5,3.06,2.5c1.65,0,3.35-1.25,3.8-2.89c0.11-0.45,0.11-1.02,0.11-1.53V160.75z"/>
	<path d="M134.78,164.43c1.76,1.08,5.85,2.33,8.57,2.33c2.33,0,3.18-0.45,3.18-1.42c0-0.96-0.57-1.36-3.8-2.21
		c-6.53-1.7-9.08-5.11-9.02-8.68c0-5.67,5.11-9.7,12.83-9.7c3.8,0,7.26,0.85,9.08,1.7l-1.7,7.15c-1.42-0.68-4.43-1.7-6.92-1.7
		c-1.76,0-2.89,0.34-2.89,1.48c0,0.91,0.96,1.48,4.54,2.44c5.85,1.59,8.29,4.37,8.34,8.8c0,5.16-4.14,9.42-13.51,9.42
		c-4.37,0-8-0.91-10.5-2.1L134.78,164.43z"/>
	<path d="M162.13,132.71h10.73v15.66h0.11c1.02-1.19,2.21-2.1,3.58-2.67c1.31-0.62,2.84-0.96,4.37-0.96
		c6.47,0,10.61,4.31,10.61,12.49v16.12h-10.73v-14.53c0-3.63-1.31-5.56-4.09-5.56c-2.21,0-3.18,1.36-3.63,2.33
		c-0.23,0.45-0.23,1.08-0.23,1.53v16.23h-10.73V132.71z"/>
	<path d="M203.67,142.59c-3.4,0-5.45-2.21-5.45-4.94c0-2.78,2.04-4.94,5.5-4.94s5.45,2.16,5.5,4.94c0,2.72-2.04,4.94-5.5,4.94
		H203.67z M198.34,173.34v-27.92h10.73v27.92H198.34z"/>
	<path d="M230.28,174.03c-8.68,0-16-5.22-16-14.41c0-8.51,5.96-14.87,16.68-14.87c9.25,0,15.66,5.9,15.66,14.3
		c0,9.53-7.32,14.98-16.29,14.98H230.28z M230.57,166.59c3.07,0,4.88-2.55,4.88-7.21c0-3.92-1.48-7.21-4.88-7.21
		c-3.75,0-5.11,3.58-5.11,7.21c0,3.97,1.59,7.21,5.05,7.21H230.57z"/>
	<path d="M251.84,155.13c0-3.97-0.11-7.21-0.23-9.7h9.25l0.45,3.69h0.23c0.85-1.19,3.58-4.37,8.85-4.37
		c6.7,0,10.84,4.31,10.84,12.49v16.12h-10.73v-14.53c0-3.63-1.31-5.56-3.97-5.56c-2.33,0-3.29,1.65-3.75,2.72
		c-0.23,0.51-0.23,1.25-0.23,1.87v15.49h-10.73V155.13z"/>
</g>
<g>
	<path d="M101.76,217.7c2.16,1.48,5.16,2.55,8.4,2.55c5.67,0,9.19-3.24,9.19-7.95c0-4.31-2.21-6.81-7.72-8.97
		c-6.19-2.16-9.87-5.33-9.87-10.56c0-5.62,4.65-9.7,11.12-9.7c3.58,0,6.3,0.96,7.6,1.82l-1.02,2.27c-1.02-0.74-3.46-1.82-6.75-1.82
		c-6.19,0-8.29,3.97-8.29,6.98c0,4.26,2.44,6.41,7.94,8.57c6.3,2.55,9.65,5.39,9.65,11.12c0,5.56-3.97,10.56-12.14,10.56
		c-3.29,0-7.15-1.14-9.14-2.61L101.76,217.7z"/>
	<path d="M143.92,183.7v16.8h21.11v-16.8h2.67v38.25h-2.67v-19.12h-21.11v19.12h-2.67V183.7H143.92z"/>
	<path d="M220.18,202.43c0,13.51-8.23,20.15-17.08,20.15c-9.42,0-16.68-7.43-16.68-19.35c0-12.54,7.55-20.15,17.14-20.15
		C213.2,183.08,220.18,190.57,220.18,202.43z M189.2,203.11c0,8.63,4.99,17.2,14.07,17.2c9.08,0,14.13-8.23,14.13-17.71
		c0-8.06-4.43-17.25-14.02-17.25C193.68,185.35,189.2,194.2,189.2,203.11z"/>
	<path d="M238.91,184.16c2.21-0.45,4.94-0.74,8.17-0.74c4.54,0,8,1.14,10.1,3.23c1.82,1.76,2.95,4.26,2.95,7.49
		c0,3.29-0.96,5.73-2.67,7.6c-2.44,2.84-6.58,4.31-11.24,4.31c-1.7,0-3.29-0.06-4.65-0.45v16.34h-2.67V184.16z M241.57,203.23
		c1.36,0.4,3.01,0.57,4.88,0.57c6.81,0,10.95-3.35,10.95-9.42c0-6.02-4.37-8.68-10.44-8.68c-2.5,0-4.37,0.23-5.39,0.45V203.23z"/>
</g>
<path d="M419.27,282.42c-0.6-0.1-1.22,0.04-1.78,0.2c-1.21,0.38-2.32,1-3.44,1.57c-1.96,1-3.9,2.01-5.88,2.97
	c-2.6,1.28-5.27,2.46-7.93,3.64c-2.95,1.26-5.92,2.47-8.84,3.75c-2.97,1.35-5.84,2.85-8.72,4.36c-2.84,1.46-5.65,3.01-8.43,4.6
	c-2.55,1.42-5.07,2.89-7.54,4.42c-2.04,1.25-3.98,2.65-5.82,4.16c-1.4,1.15-2.63,2.48-3.73,3.9c-0.78,1.09-1.18,2.3-1.12,3.64
	c0.13,1.34,0.84,2.41,1.67,3.44c0.49,0.54,1.03,1.04,1.6,1.49c0.19,0.17,0.81,0.62,0.59,0.46c-3.49-2.6-4.35-3.12-2.64-2.05
	c1.35,0.78,2.78,1.34,4.22,1.86c1.66,0.57,3.35,0.96,5.06,1.31c1.87,0.39,3.77,0.59,5.67,0.72c2.08,0.13,4.16,0.03,6.21-0.15
	c2.34-0.28,4.63-0.72,6.93-1.13c2.5-0.47,4.99-1.03,7.46-1.63c2.48-0.59,4.95-1.29,7.39-2.06c2.42-0.79,4.83-1.62,7.21-2.49
	c2.36-0.88,4.68-1.88,6.96-2.93c2.3-1.04,4.54-2.19,6.79-3.34c2.23-1.09,4.44-2.19,6.69-3.26c2.07-0.97,4.12-2.03,6.1-3.17
	c1.84-1.06,3.65-2.2,5.39-3.41c1.66-1.09,3.31-2.24,4.89-3.44c1.43-1.1,2.8-2.28,4.12-3.51c1.16-1.04,2.29-2.13,3.36-3.29
	c0.8-0.87,1.52-1.79,2.28-2.71c0.4-0.54,0.73-1.13,0.76-1.81c-0.04-0.26-0.16-0.45-0.34-0.64c-0.07-0.05-0.3-0.22-0.24-0.17
	c1.57,1.36,2.05,1.62,0.98,0.96c-0.7-0.36-1.43-0.28-2.18-0.15c-0.86,0.25-1.65,0.65-2.45,1c-0.98,0.45-1.91,1.01-2.79,1.61
	c-1.02,0.68-1.94,1.48-2.89,2.23c-1.02,0.78-2.04,1.54-2.93,2.46c-0.9,0.9-1.62,1.92-2.37,2.93c-0.67,1.01-1.22,2.11-1.62,3.25
	c-0.47,1.13-0.63,2.34-0.76,3.54c-0.15,1.29-0.06,2.55,0.19,3.8c0.36,1.46,1.01,2.79,1.72,4.12c0.74,1.4,1.65,2.67,2.65,3.88
	c1.12,1.34,2.43,2.44,3.78,3.51c1.68,1.21,4.99,3.83-2.48-1.85c-0.24-0.17,0.48,0.33,0.72,0.5c0.73,0.46,0.79,0.48,1.53,0.92
	c1.61,0.95,3.37,1.63,5.17,2.22c1.96,0.66,4,1.02,6.07,1.25c2.38,0.19,4.77,0.08,7.14-0.04c2.8-0.17,5.57-0.44,8.35-0.79
	c2.99-0.32,5.97-0.8,8.94-1.34c3.04-0.54,6.05-1.2,9.03-1.97c2.94-0.72,5.83-1.63,8.71-2.52c2.7-0.81,5.27-1.94,7.85-3.11
	c2.43-1.15,4.76-2.44,7.06-3.84c2.14-1.39,4.21-2.9,6.32-4.36c1.81-1.29,3.59-2.65,5.21-4.19c1.31-1.32,2.43-2.81,3.48-4.34
	c0.84-1.35,1.44-2.81,1.84-4.36c0.34-1.41,0.41-2.84,0.29-4.28c-0.07-1.35-0.54-2.58-1.11-3.78c-0.62-1.21-1.56-2.22-2.54-3.14
	c-1.18-1-3.68-2.87,1.96,1.39c0.19,0.14-0.35-0.26-0.55-0.38c-0.48-0.3-0.67-0.39-1.16-0.68c-1.18-0.61-2.48-0.97-3.81-1.14
	c-1.54-0.09-3.05,0.12-4.54,0.42c-1.82,0.4-3.64,0.88-5.46,1.38c-1.91,0.54-3.79,1.26-5.6,2.11c-1.92,0.85-3.76,1.83-5.58,2.85
	c-1.85,1.1-3.58,2.4-5.3,3.71c-1.79,1.33-3.33,2.97-4.95,4.54c-1.56,1.52-3.11,3.09-4.49,4.8c-1.36,1.7-2.48,3.55-3.58,5.42
	c-1.1,1.84-2.11,3.72-3.1,5.62c-0.89,1.84-1.68,3.73-2.31,5.68c-0.67,1.9-1.09,3.87-1.57,5.83c-0.43,1.92-0.62,3.88-0.79,5.83
	c-0.1,1.9-0.09,3.78,0.04,5.66c0.16,1.83,0.46,3.61,0.87,5.37c0.37,1.75,1.01,3.42,1.71,5.08c0.75,1.7,1.64,3.31,2.63,4.9
	c0.92,1.56,1.97,3.04,3.07,4.47c1.07,1.47,2.27,2.84,3.54,4.14c1.28,1.36,2.71,2.56,4.2,3.71c1.75,1.26,5.2,3.94-2.65-1.98
	c-0.27-0.2,0.52,0.36,0.77,0.54c0.6,0.39,1,0.66,1.59,1.04c1.54,0.98,3.12,1.9,4.75,2.75c1.52,0.79,3.12,1.44,4.73,2.03
	c1.68,0.61,3.4,1.02,5.12,1.44c1.75,0.41,3.53,0.78,5.3,1.1c1.68,0.3,3.35,0.46,5.03,0.61c1.69,0.1,3.36,0.16,5.04,0.21
	c1.62,0.05,3.28,0.05,4.91,0.06c1.5,0.04,3-0.05,4.49-0.2c1.43-0.11,2.81-0.43,4.19-0.71c1.37-0.27,2.68-0.65,4.01-1.07
	c1.27-0.42,2.44-1.06,3.66-1.62c1.25-0.61,2.48-1.21,3.73-1.85c1.18-0.61,2.32-1.36,3.49-2.06c1.15-0.68,2.26-1.48,3.39-2.23
	c1.14-0.74,2.27-1.5,3.4-2.25c1.11-0.74,2.14-1.57,3.17-2.4c1.03-0.83,2.02-1.68,3.02-2.55c0.98-0.84,1.92-1.73,2.85-2.6
	c0.96-0.85,1.8-1.81,2.58-2.83c0.79-1.03,1.54-2.09,2.25-3.2c0.66-1.1,1.31-2.2,1.84-3.38c0.52-1.1,0.88-2.29,1.23-3.46
	c0.29-1.14,0.52-2.26,0.6-3.46c0.1-1.12,0.02-2.25-0.2-3.37c-0.19-1.12-0.56-2.2-0.94-3.27c-0.42-1.09-0.95-2.13-1.49-3.15
	c-0.51-1-1.14-1.91-1.83-2.77c-0.71-0.91-1.58-1.63-2.47-2.29c5.31,3.68,1.47,1.14,0.08,0.5c-1.03-0.47-2.12-0.65-3.22-0.74
	c-1.26-0.05-2.49,0.27-3.69,0.63c-1.48,0.52-2.92,1.15-4.35,1.78c-1.67,0.72-3.12,1.83-4.62,2.86c-1.7,1.19-3.2,2.68-4.62,4.19
	c-1.63,1.79-3.06,3.7-4.49,5.63c-1.45,2.05-2.74,4.22-3.95,6.42c-1.04,2.19-1.98,4.41-2.62,6.77c-0.57,2.28-0.75,4.65-0.84,6.99
	c-0.1,2.18-0.11,4.39,0.02,6.56c0.12,2.09,0.61,4.11,1.16,6.11c0.59,2.02,1.58,3.84,2.77,5.58c1.3,1.76,2.91,3.28,4.57,4.69
	c2.05,1.51,5.99,4.7-3.11-2.29c-0.27-0.23,0.61,0.4,0.92,0.58c0.84,0.52,1.03,0.58,1.91,1.04c2,1.03,4.17,1.56,6.36,1.98
	c2.65,0.42,5.32,0.43,7.98,0.48c3.4,0.04,6.77-0.16,10.16-0.36c3.79-0.25,7.57-0.55,11.36-0.86c3.85-0.36,7.7-0.8,11.5-1.4
	c3.95-0.6,7.87-1.24,11.81-1.93c3.98-0.68,7.97-1.33,11.97-1.94c3.76-0.53,7.56-1.03,11.33-1.53c3.35-0.42,6.69-0.87,10.04-1.39
	c2.93-0.41,5.86-0.93,8.75-1.48c2.68-0.57,5.36-1.04,8.03-1.56c2.43-0.44,4.88-0.88,7.3-1.35c2.12-0.41,4.24-0.82,6.36-1.24
	c1.87-0.39,3.72-0.82,5.59-1.21c1.71-0.38,3.43-0.64,5.16-0.9c0.8-0.14,1.61-0.24,2.41-0.35l3.93,3.41l0,0
	c-0.78,0.1-1.52,0.2-2.28,0.42c-1.59,0.39-3.17,0.81-4.75,1.23c-1.72,0.5-3.42,1.01-5.13,1.57c-1.9,0.6-3.76,1.23-5.66,1.86
	c-2.17,0.69-4.32,1.39-6.51,2.04c-2.48,0.69-4.98,1.4-7.5,2.01c-2.69,0.69-5.37,1.4-8.05,2.12c-2.98,0.8-5.95,1.59-8.95,2.35
	c-3.42,0.8-6.84,1.64-10.3,2.42c-3.84,0.84-7.72,1.64-11.61,2.26c-4.01,0.65-8,1.28-12.02,1.8c-3.94,0.42-7.86,0.91-11.81,1.23
	c-3.88,0.34-7.78,0.66-11.67,0.68c-3.8,0.01-7.6-0.12-11.38-0.59c-3.31-0.44-6.61-1.05-9.82-1.93c-2.5-0.7-4.95-1.49-7.28-2.63
	c-4.17-2.06-7.84-4.94-11.41-7.88c-1.61-1.42-3.14-2.93-4.28-4.76c-1.09-1.79-2.01-3.69-2.62-5.72c-0.63-2.07-1.04-4.19-1.33-6.33
	c-0.29-2.32-0.51-4.66-0.49-7.02c0.07-2.42,0.22-4.85,0.82-7.21c0.6-2.44,1.28-4.88,2.44-7.12c1.13-2.31,2.39-4.55,4.05-6.52
	c1.56-1.91,3.26-3.73,5.22-5.22c1.7-1.4,3.5-2.67,5.43-3.74c1.69-0.96,3.49-1.74,5.32-2.42c1.64-0.61,3.3-1.1,5.05-1.32
	c1.49-0.23,2.96-0.31,4.45-0.12c1.21,0.11,2.42,0.38,3.55,0.85c2.17,0.93,4.01,2.31,5.87,3.8c0.9,0.69,1.7,1.46,2.39,2.33
	c0.72,0.92,1.39,1.88,1.92,2.92c0.54,1.02,1.05,2.07,1.44,3.16c0.37,1.08,0.69,2.2,0.89,3.33c0.16,1.16,0.27,2.31,0.21,3.48
	c-0.09,1.21-0.2,2.42-0.5,3.61c-0.26,1.24-0.65,2.43-1.13,3.61c-0.52,1.2-1.06,2.39-1.77,3.5c-0.7,1.12-1.45,2.21-2.31,3.24
	c-0.87,0.94-1.73,1.89-2.64,2.81c-0.92,0.9-1.85,1.81-2.8,2.67c-0.97,0.9-1.96,1.78-2.99,2.61c-1.04,0.85-2.11,1.64-3.16,2.45
	c-1.08,0.79-2.2,1.58-3.33,2.33c-1.14,0.74-2.29,1.45-3.44,2.2s-2.33,1.4-3.51,2.09c-1.18,0.69-2.4,1.35-3.64,1.94
	c-1.26,0.58-2.56,1.05-3.87,1.52c-1.24,0.49-2.51,0.93-3.82,1.27c-1.37,0.34-2.75,0.6-4.14,0.82c-1.43,0.22-2.85,0.34-4.28,0.46
	c-1.54,0.11-3.09,0.17-4.63,0.23c-1.67,0.01-3.35,0-5.03-0.15c-1.67-0.14-3.31-0.31-4.97-0.52c-1.7-0.19-3.39-0.47-5.06-0.82
	c-1.78-0.4-3.55-0.85-5.28-1.47c-1.65-0.65-3.28-1.3-4.87-2.06c-1.55-0.75-3.07-1.58-4.53-2.48c-3.33-2.04-6.44-4.38-9.51-6.77
	c-1.41-1.15-2.81-2.36-4.03-3.73c-1.23-1.32-2.4-2.73-3.49-4.18c-1.11-1.49-2.2-3-3.16-4.59c-0.91-1.58-1.74-3.21-2.43-4.91
	c-0.66-1.68-1.23-3.4-1.7-5.17c-0.44-1.83-0.83-3.67-1.02-5.56c-0.19-1.96-0.33-3.93-0.19-5.91c0.1-2,0.37-3.99,0.72-5.99
	c0.34-2.01,0.94-3.99,1.52-5.95c0.69-1.96,1.35-3.94,2.2-5.84c0.84-2.03,1.76-4.01,2.88-5.88c1.14-1.86,2.39-3.67,3.74-5.4
	c1.38-1.74,2.7-3.52,4.24-5.12c1.58-1.65,3.32-3.14,5.17-4.51c1.77-1.32,3.68-2.49,5.62-3.55c1.84-1.06,3.73-2.06,5.71-2.86
	c1.92-0.74,3.89-1.47,5.89-1.97c1.97-0.52,3.93-0.93,5.96-1.07c1.82-0.11,3.67-0.15,5.49,0.23c1.45,0.26,2.88,0.64,4.21,1.31
	c2.53,1.29,4.8,3.04,6.92,4.92c0.95,0.96,1.82,2.01,2.41,3.25c0.63,1.3,1.09,2.65,1.31,4.08c0.17,1.53,0.19,3.1-0.06,4.63
	c-0.29,1.66-0.7,3.31-1.41,4.84c-0.76,1.78-1.64,3.49-2.78,5.04c-1.29,1.78-2.68,3.5-4.27,5.06c-1.79,1.8-3.78,3.4-5.9,4.8
	c-2.19,1.53-4.46,2.95-6.84,4.18c-2.46,1.26-4.96,2.43-7.5,3.49c-2.71,1.15-5.48,2.12-8.3,2.98c-2.98,0.8-5.99,1.57-9.03,2.08
	c-3.06,0.53-6.14,0.93-9.24,1.19c-3.01,0.2-6.02,0.38-9.04,0.28c-2.77-0.09-5.51-0.27-8.25-0.78c-2.29-0.41-4.58-0.93-6.8-1.73
	c-1.96-0.72-3.88-1.51-5.7-2.56c-3.24-1.95-6.26-4.22-9.21-6.57c-1.18-1.05-2.31-2.15-3.27-3.39c-0.93-1.2-1.81-2.48-2.43-3.86
	c-0.52-1.24-0.91-2.54-1.04-3.88c-0.13-1.27-0.16-2.53,0.01-3.79c0.19-1.24,0.47-2.43,0.86-3.6c0.47-1.16,0.95-2.31,1.63-3.37
	c0.64-1.11,1.43-2.15,2.33-3.06c0.96-0.88,1.88-1.78,2.94-2.54c1.04-0.74,2.1-1.41,3.22-2.02c1.03-0.52,2.07-1.02,3.19-1.37
	c0.98-0.31,1.99-0.56,3.02-0.61c0.8-0.03,1.6-0.02,2.39,0.15c1.25-0.07,2.61,1.53,3.16,2.69c0.3,0.87,0.35,1.74,0.24,2.64
	c-0.14,1.28-0.55,2.51-1.15,3.65c-0.76,1.39-1.61,2.71-2.65,3.92c-1.21,1.32-2.41,2.64-3.72,3.89c-1.41,1.35-2.85,2.68-4.43,3.86
	c-1.71,1.23-3.42,2.49-5.16,3.66c-1.86,1.23-3.73,2.45-5.63,3.62c-2.07,1.26-4.2,2.42-6.34,3.57c-2.23,1.16-4.5,2.3-6.79,3.37
	c-2.31,1.05-4.64,2.04-6.98,2.96c-2.38,0.95-4.78,1.8-7.19,2.57c-2.44,0.8-4.87,1.53-7.36,2.19c-2.52,0.61-5.05,1.19-7.63,1.55
	c-2.53,0.37-5.06,0.63-7.61,0.63c-2.28,0.03-4.56-0.01-6.83-0.25c-2.05-0.21-4.1-0.53-6.12-1c-1.86-0.44-3.74-0.96-5.53-1.63
	c-1.65-0.65-3.27-1.34-4.77-2.27c-2.51-1.59-5.1-3.26-6.97-5.63c-0.72-1.07-1.25-2.25-1.41-3.56c-0.12-1.49-0.06-2.98,0.41-4.43
	c0.55-1.8,1.35-3.5,2.48-5.03c1.33-1.91,2.79-3.71,4.46-5.34c2-1.98,4.15-3.8,6.47-5.39c2.62-1.76,5.26-3.51,8-5.04
	c2.9-1.58,5.83-3.06,8.87-4.32c2.97-1.32,5.95-2.58,9-3.69c2.99-1.02,5.99-2.03,9.07-2.75c2.66-0.61,5.32-1.09,8.04-1.25
	c1.89-0.09,3.76-0.09,5.61,0.18c1.06,0.18,2.11,0.41,3.09,0.88L419.27,282.42L419.27,282.42z"/>
<path d="M384.71,290.99c0.21,0.44,0.47,0.85,0.74,1.26c0.44,0.68,0.92,1.31,1.4,1.95c0.75,1,1.39,2.05,1.97,3.16
	c0.71,1.44,1.4,2.9,2.1,4.35c0.84,1.83,1.75,3.62,2.62,5.42c1.05,2.21,2.02,4.45,2.91,6.72c0.97,2.44,1.83,4.93,2.7,7.41
	c0.85,2.54,1.82,5.02,2.7,7.54c0.95,2.64,1.8,5.33,2.59,8.03c0.8,2.82,1.42,5.68,2.03,8.56c0.57,2.84,1.1,5.68,1.61,8.53
	c0.5,2.78,0.9,5.56,1.31,8.35c0.4,2.7,0.74,5.4,1.1,8.09c0.33,2.53,0.67,5.07,1.1,7.58c0.36,2.35,0.95,4.66,1.62,6.93
	c0.65,2.2,1.38,4.37,2.23,6.51c0.84,2,1.86,3.93,3.01,5.78c1.08,1.8,2.43,3.41,3.83,4.98c1.4,1.49,2.91,2.85,4.52,4.11
	c1.54,1.2,3.19,2.23,4.88,3.18c1.61,0.92,3.29,1.68,5,2.34c1.65,0.63,3.38,1.03,5.12,1.36c1.7,0.28,3.41,0.46,5.13,0.57
	c1.64,0.14,3.31,0.07,4.95-0.11c1.68-0.18,3.27-0.69,4.82-1.32c1.56-0.64,2.98-1.53,4.37-2.48c1.33-0.9,2.54-1.98,3.69-3.09
	c-6.01,5.9-3.31,3.35-2.12,1.92c0.52-0.6,0.99-1.24,1.47-1.88c0.91-1.29,1.7-2.66,2.43-4.07c0.69-1.31,1.2-2.72,1.62-4.15
	c0.4-1.38,0.56-2.8,0.62-4.24c0.02-1.45-0.09-2.91-0.26-4.34c-0.18-1.41-0.48-2.8-0.88-4.16c-0.37-1.29-1.07-2.46-1.86-3.55
	c-0.83-1.11-1.75-2.17-2.72-3.16c-0.93-0.99-2.02-1.81-3.13-2.59c-1.08-0.73-2.29-1.17-3.54-1.5c-1.3-0.29-2.62-0.34-3.94-0.32
	c-1.25,0.03-2.49,0.24-3.7,0.58c-1.07,0.31-2.09,0.79-3.09,1.28c-0.85,0.44-1.6,1.02-2.29,1.65c3.75-3.93,1.16-1.14,0.49,0.01
	c-0.41,0.73-0.63,1.53-0.69,2.36c-0.07,0.84,0.11,1.63,0.4,2.39c0.33,0.84,0.89,1.55,1.51,2.2c0.69,0.72,1.52,1.29,2.4,1.74
	c1.02,0.47,2.06,0.87,3.13,1.26c1.11,0.38,2.26,0.63,3.42,0.8c1.24,0.21,2.49,0.21,3.73,0.21c1.33-0.01,2.63-0.16,3.94-0.34
	c1.35-0.18,2.67-0.49,3.98-0.88c1.39-0.39,2.72-0.9,4.05-1.47c1.51-0.64,2.89-1.49,4.26-2.39c1.52-1.02,2.87-2.25,4.19-3.52
	c-7.33,7.51-2.12,1.98-0.55,0.1c1.19-1.43,2.26-2.94,3.31-4.47c0.98-1.44,1.83-2.98,2.6-4.54c0.77-1.56,1.39-3.18,2-4.82
	c0.61-1.63,1.15-3.28,1.67-4.94c0.49-1.62,0.87-3.27,1.27-4.91c0.37-1.72,0.76-3.44,1.14-5.15c0.42-1.79,0.86-3.57,1.33-5.35
	c0.44-1.75,0.88-3.5,1.31-5.23c0.42-1.73,0.8-3.48,1.23-5.2c0.44-1.81,0.95-3.58,1.51-5.34c0.55-1.82,1.26-3.59,2.01-5.33
	c0.7-1.7,1.51-3.34,2.38-4.95c0.8-1.51,1.76-2.93,2.77-4.31c2.1-2.71,4.68-5.02,7.11-7.4c1.11-1.05,2.32-1.97,3.56-2.86
	c1.15-0.83,2.39-1.53,3.65-2.21c1.19-0.61,2.43-1.16,3.67-1.66c1.21-0.5,2.47-0.88,3.72-1.28c1.29-0.41,2.61-0.75,3.93-1.05
	c1.31-0.32,2.63-0.51,3.97-0.7c1.25-0.2,2.51-0.33,3.78-0.49c1.24-0.13,2.48-0.31,3.71-0.53c1.36-0.27,2.69-0.64,4.01-1.02
	c1.45-0.43,2.88-0.88,4.29-1.39c1.59-0.55,3.15-1.22,4.68-1.89c1.64-0.74,3.27-1.51,4.88-2.33c1.63-0.82,3.21-1.76,4.8-2.69
	c1.65-1,3.21-2.11,4.77-3.24c1.56-1.15,3.04-2.4,4.5-3.67c1.61-1.49,4.72-4.54-2.4,2.39c-0.23,0.23,0.46-0.45,0.68-0.69
	c0.58-0.59,0.74-0.76,1.31-1.36c1.27-1.35,2.45-2.79,3.57-4.25c1.09-1.43,2.06-2.94,2.98-4.48c0.9-1.51,1.68-3.1,2.43-4.69
	c0.74-1.54,1.33-3.14,1.87-4.76c0.51-1.57,0.89-3.19,1.2-4.82c0.28-1.67,0.43-3.36,0.52-5.07c0.09-1.81,0.03-3.62-0.15-5.42
	c-0.18-1.91-0.53-3.79-0.95-5.65c-0.47-1.98-1.18-3.86-1.92-5.74c-0.79-2.07-1.86-4.01-3.04-5.89c-1.41-2.27-3.16-4.32-5-6.27
	l7.39-6.97l0,0c1.14,2.62,2.36,5.2,3.45,7.85c0.87,2.16,1.72,4.34,2.45,6.56c0.63,2.02,1.21,4.06,1.58,6.16
	c0.39,1.95,0.69,3.9,0.82,5.89c0.08,1.91,0.12,3.81-0.06,5.71c-0.18,1.8-0.37,3.59-0.75,5.35c-0.34,1.65-0.72,3.3-1.22,4.92
	c-0.49,1.58-1.04,3.16-1.67,4.69c-0.69,1.59-1.42,3.15-2.28,4.65c-0.89,1.54-1.82,3.04-2.88,4.47c-1.05,1.43-2.15,2.84-3.35,4.17
	c-2.66,2.94-5.5,5.71-8.42,8.38c-1.44,1.25-2.94,2.47-4.51,3.57c-1.51,1.08-3.06,2.09-4.67,3c-1.55,0.91-3.11,1.76-4.73,2.55
	c-1.54,0.75-3.09,1.45-4.7,2.04c-1.43,0.51-2.88,0.99-4.33,1.41c-1.36,0.38-2.7,0.78-4.09,1.08c-1.24,0.27-2.5,0.49-3.76,0.66
	c-1.25,0.18-2.49,0.36-3.73,0.55c-1.3,0.21-2.6,0.44-3.9,0.65c-1.35,0.24-2.67,0.51-4,0.78c-1.29,0.28-2.58,0.58-3.83,0.98
	c-1.28,0.38-2.54,0.85-3.75,1.39c-1.3,0.58-2.56,1.2-3.79,1.91c-1.31,0.77-2.6,1.58-3.8,2.5c-1.28,0.97-2.51,1.99-3.66,3.11
	c6.65-6.55,1.79-1.89,0.5-0.13c-1.02,1.31-1.95,2.68-2.72,4.14c-0.77,1.52-1.47,3.09-2.1,4.66c-0.68,1.72-1.3,3.45-1.9,5.21
	c-0.58,1.79-1.17,3.59-1.66,5.41c-0.48,1.77-0.96,3.52-1.39,5.3c-0.4,1.73-0.83,3.45-1.22,5.17c-0.39,1.78-0.81,3.54-1.27,5.31
	c-0.47,1.78-0.89,3.56-1.38,5.34c-0.43,1.68-0.89,3.35-1.38,5.02c-0.46,1.63-0.95,3.24-1.48,4.85c-0.6,1.66-1.22,3.3-1.99,4.89
	c-0.76,1.55-1.58,3.08-2.49,4.55c-0.94,1.51-1.93,2.99-3.04,4.36c-2.42,2.99-5.12,5.72-7.97,8.31c-1.21,1.1-2.48,2.13-3.9,2.96
	c-1.27,0.73-2.58,1.37-3.95,1.88c-1.29,0.47-2.61,0.9-3.94,1.23c-1.29,0.32-2.6,0.59-3.92,0.73c-1.29,0.14-2.57,0.2-3.86,0.15
	c-1.22-0.04-2.43-0.19-3.64-0.43c-1.13-0.26-2.25-0.56-3.34-0.97c-1.04-0.41-2.06-0.86-2.96-1.54c-0.82-0.6-1.64-1.22-2.29-2
	c-0.58-0.77-1.07-1.58-1.34-2.51c-0.24-0.83-0.39-1.68-0.37-2.55c0.07-0.83,0.21-1.63,0.56-2.4c0.82-1.76,2.2-2.96,3.67-4.29
	c0.82-0.76,1.69-1.45,2.66-2.01c1.09-0.63,2.22-1.19,3.43-1.58c1.29-0.39,2.6-0.69,3.95-0.7c1.34,0,2.68,0.09,3.97,0.47
	c1.3,0.37,2.55,0.83,3.73,1.51c1.22,0.69,2.34,1.54,3.35,2.51c1,1.02,1.97,2.07,2.75,3.27c0.71,1.19,1.38,2.4,1.87,3.69
	c0.49,1.31,0.97,2.64,1.15,4.02c0.23,1.45,0.4,2.93,0.33,4.41c-0.07,1.46-0.21,2.91-0.58,4.35c-0.34,1.4-0.79,2.78-1.41,4.1
	c-0.63,1.38-1.33,2.72-2.18,3.97c-1.91,2.77-4.2,5.12-6.75,7.38c-1.22,1.16-2.49,2.28-3.9,3.22c-1.41,0.93-2.88,1.8-4.48,2.41
	c-1.58,0.58-3.21,1.02-4.9,1.17c-1.7,0.15-3.41,0.22-5.12,0.18c-1.77-0.07-3.55-0.16-5.31-0.47c-1.8-0.31-3.58-0.72-5.32-1.3
	c-1.8-0.61-3.59-1.3-5.29-2.15c-1.78-0.92-3.54-1.88-5.18-3.04c-1.67-1.24-3.3-2.54-4.74-4.07c-1.47-1.53-2.85-3.15-4.06-4.93
	c-1.21-1.83-2.36-3.69-3.29-5.68c-0.96-2.07-1.87-4.16-2.56-6.34c-0.71-2.24-1.34-4.51-1.88-6.8c-0.58-2.37-1.1-4.77-1.6-7.19
	c-0.49-2.59-1-5.2-1.44-7.8c-0.48-2.72-0.99-5.44-1.52-8.15c-0.55-2.8-1.15-5.58-1.77-8.35c-0.65-2.85-1.34-5.69-1.99-8.54
	c-0.67-2.8-1.34-5.59-2.13-8.36c-0.76-2.6-1.5-5.2-2.43-7.74c-0.88-2.49-1.76-4.99-2.58-7.5c-0.8-2.44-1.55-4.89-2.18-7.38
	c-0.52-2.14-0.97-4.31-1.49-6.45c-0.39-1.72-0.76-3.43-1.2-5.14c-0.33-1.37-0.64-2.75-0.89-4.13c-0.15-0.94-0.29-1.87-0.45-2.82
	c-0.09-0.6-0.16-1.19-0.16-1.81L384.71,290.99L384.71,290.99z"/>
<path d="M312.63,113.31c-1.13,8.2-5.55,97.99,0.12,104.7c1.19-5.25,3.69-84.24,9.87-80.37c6.18,3.87,0.98-25.39-1.56-27.27
	C318.53,108.49,314.15,102.24,312.63,113.31z"/>
<path d="M385.95,112.93c2.56,7.07,14.17,39.28,15.44,46.86c1.27,7.58-32.81,19.78-32.4,42.96c0.41,23.18-1.76,1.34-2.9-1
	c-1.14-2.34,7.67-25.89,20.28-34.18c12.6-8.29-6.28-46.38-11.23-36.81s-8.31-7.92-5.31-15.64
	C372.82,107.38,382.71,103.96,385.95,112.93z"/>
<path d="M339.67,91.75c0,0,7.28-6.31,6.21-14.5c-1.06-8.19-7.14-2.16-11.22,0c-4.08,2.16-6.67-7.76-6.67-22
	c0-14.23,3.5-18.98,11.67-25.02c8.17-6.04,22.83-3.45,26.72,6.9c3.88,10.35-9.59,31.27-9.45,38.6
	C357.08,82.96,351.77,87.71,339.67,91.75z"/>
<path d="M325.88,279.47c-0.95,10.32,12.43,46.06,14.3,60.64c1.87,14.58,7.72,53.89,7.97,65.25c0.25,11.36,8.82-27.97,7.62-37.7
	c-1.2-9.73,2.31-76.29-6.44-87.57c-8.75-11.27,4.24-35.92-6.46-32.55C332.17,250.9,326.29,275,325.88,279.47z"/>
<path d="M352.82,443.7c4.74-8.08,3.81-15.9,3.6-26.58c-0.21-10.67,7.76-55.56,4.25-69.72c-3.51-14.15,2.4-36.31,6.8-56.07
	c4.4-19.77,3.75-50.82-9.14-58.43c-12.89-7.61-19.38,36.35-15.14,59.74c4.24,23.39,13.65,45.61,7.25,56.44
	c-7.61,12.89-4.05,25.11-1.71,65.42C344.63,441.55,344.7,457.55,352.82,443.7z"/>
<path d="M325.77,217.22c-0.49-0.1-0.59-0.59-0.74-1.03c-0.26-0.77-0.08-1.49,0.18-2.24c0.46-1.1,1.21-2.08,1.98-3.01
	c0.92-1.23,1.98-2.36,3.06-3.47c1.26-1.31,2.64-2.44,4.06-3.55c1.59-1.21,3.26-2.31,4.98-3.34c1.69-0.98,3.52-1.72,5.39-2.26
	c1.62-0.44,3.03-0.57,4.62,0.39c0.21,0.1-0.31,0.31-0.44,0.49c-0.62,0.85-0.98,1.88-1.41,2.83c-0.64,1.52-1.67,2.83-2.59,4.16
	c-1.26,1.88-2.75,3.6-4.26,5.27c-1.75,1.8-3.54,3.55-5.55,5.06c-1.59,1.23-3.41,2.16-5.26,2.96c-0.8,0.41-1.69,0.57-2.54,0.82
	c-2.9-0.85-2.85-0.18-1.75-1.05c0.41-0.33,0.74-0.8,1.08-1.23c0.59-0.69,1.23-1.36,1.9-2c0.98-0.87,2.03-1.67,3.11-2.49
	c1.33-1,2.77-1.88,4.24-2.7c1.59-0.9,3.26-1.72,4.93-2.49c1.72-0.77,3.49-1.44,5.29-2.03c1.82-0.62,3.67-1.16,5.52-1.59
	c2.75-0.72,5.52-0.59,8.34-0.57c0.49,0.31,0.72,0.92,0.95,1.46c0.36,1.05,0.23,2.08-0.05,3.14c-0.54,1.46-1.49,2.72-2.44,3.96
	c-1.13,1.49-2.49,2.8-3.88,4.06c-1.57,1.52-3.24,2.9-4.96,4.24c-2.08,1.52-4.31,2.85-6.55,4.19c-2.34,1.36-4.78,2.54-7.19,3.73
	c-2.34,1.1-4.67,2.24-7.09,3.14c-2.08,0.77-4.26,1.31-6.47,1.72c-1.85,0.33-3.72,0.49-5.55-0.1c-0.18-0.05,0.26-0.26,0.38-0.36
	c0.08-0.82,0.21-1.54,0.62-2.26c0.72-1.08,1.69-1.95,2.67-2.8c1.16-0.95,2.36-1.85,3.54-2.75c1.16-0.85,2.31-1.64,3.47-2.52
	c1.13-0.82,2.26-1.64,3.49-2.34c1.16-0.62,2.39-1.08,3.67-1.26c1.05-0.1,1.39-0.18,2.85,0.67c0.21,0.13-0.36,0.31-0.51,0.46
	c-0.31,0.36-0.46,0.85-0.62,1.28c-0.44,1.23-1.05,2.39-1.75,3.52c-1.05,1.67-2.16,3.32-3.31,4.93c-1.51,2.03-3.06,4.06-4.6,6.07
	c-1.75,2.29-3.26,4.7-4.78,7.12c-1.59,2.85-3.21,5.65-4.9,8.43c-1.72,2.93-3.52,5.81-5.24,8.74c-1.67,2.72-3.21,5.53-4.65,8.4
	c-1.36,2.78-2.59,5.63-3.83,8.48c-1.26,2.85-2.49,5.71-3.8,8.51c-1.18,2.78-2.36,5.58-3.54,8.35c-1.18,2.65-2.26,5.35-3.39,8.02
	c-1.08,2.49-2.18,4.99-3.31,7.48c-1.03,2.08-2.52,3.83-4.31,5.29c0.21,0.41-5.26,2.65-3.29,0.21c0.56-1.23,0.95-2.52,1.49-3.78
	c0.85-2.08,1.64-4.16,2.49-6.25c1.03-3.01,2.49-5.81,3.98-8.61c1.67-3.24,3.47-6.4,5.24-9.56c1.93-3.42,3.93-6.78,6.01-10.1
	c2.16-3.44,4.39-6.84,6.55-10.28c2.16-3.55,4.44-7.04,6.7-10.51c2.29-3.5,4.67-6.94,7.11-10.33c2.31-3.21,4.6-6.45,6.93-9.64
	c2.21-2.93,4.47-5.83,6.7-8.74c1.98-2.65,4-5.19,6.34-7.5c1.72-1.72,3.65-3.21,5.83-4.34c1.72-0.8,3.08-0.98,4.98-0.15
	c0.18,0.08-0.1,0.33-0.15,0.51c0.05,1.16,0.13,2.34,0.05,3.52c-0.1,1.75-0.33,3.52-0.69,5.24c-0.51,2.24-1.1,4.47-1.75,6.68
	c-0.77,2.65-1.72,5.19-2.64,7.79c-1.05,3.01-1.98,6.04-3.03,9.05c-1.31,3.55-2.8,7.04-4.47,10.43c-1.8,3.6-3.57,7.2-5.34,10.79
	c-1.8,3.73-3.57,7.5-5.26,11.28c-1.8,3.98-3.75,7.89-5.62,11.85c-1.9,3.98-3.52,8.12-5.11,12.28c-1.59,4.29-3.23,8.61-4.83,12.9
	c-1.44,4.11-3,8.17-4.67,12.18c-1.26,3.21-2.98,6.19-4.8,9.1c-0.49,1.18-2.31,2.6-2.16,3.96c0.31,0.39,0.8,0.39,1.26,0.39
	c0.21,0,0.85-0.03,0.64-0.05c-2.9-0.13-3.88,0.31-2.54-0.21c1.18-0.62,2.23-1.49,3.21-2.39c1.54-1.31,2.72-2.96,3.93-4.57
	c1.59-2.18,3.16-4.42,4.67-6.68c1.87-2.6,3.57-5.32,5.19-8.1c1.75-3.01,3.54-6.01,5.16-9.1c1.69-3.11,3.18-6.32,4.52-9.59
	c1.33-3.34,2.44-6.76,3.47-10.2c1.05-3.62,1.98-7.27,2.95-10.92c1.05-3.75,2.21-7.45,3.29-11.21c1.16-3.73,2.18-7.5,3.18-11.28
	c1.13-3.68,2.36-7.3,3.59-10.92c1.13-3.21,2.29-6.4,3.44-9.61c0.95-2.85,2.08-5.63,3.54-8.28c1.13-1.9,2.44-3.7,4.01-5.27
	c0.72-0.77,1.67-1.16,2.59-1.59c3.88,0.39,2.16-0.39,2.41,1.08c0.08,0.39,0.26,0.77,0.41,1.13c0.31,0.95,0.44,1.93,0.59,2.93
	c0.1,1.28,0.26,2.54,0.36,3.83c0.08,1.65-0.08,3.26-0.15,4.88c-0.18,1.82-0.23,3.67-0.31,5.5c-0.05,2.08-0.26,4.14-0.46,6.19
	c-0.26,2.24-0.38,4.47-0.62,6.68c-0.21,2.44-0.56,4.83-0.92,7.25c-0.44,2.44-0.77,4.91-1.13,7.38c-0.36,2.57-0.77,5.11-1.18,7.66
	c-0.49,2.49-1.18,4.96-1.82,7.4c-0.46,2.26-1.23,4.37-2.62,6.25c-0.92,1.08-2.08,1.85-3.47,2.21c-0.92-0.03-1.87,0.03-2.8-0.1
	c-0.1,0-0.03-0.18-0.08-0.28c-0.28-0.54-0.85-1.03-1.23-1.49c-1.13-1.26-1.82-2.78-2.41-4.37c-0.64-2.06-1.05-4.16-1.39-6.27
	c-0.31-2.47-0.26-4.93-0.08-7.38c0.1-2.7,0.56-5.37,1.16-7.99c0.67-2.78,1.57-5.47,2.59-8.15c1.08-2.6,2.31-5.14,3.59-7.63
	c1.23-2.34,2.59-4.6,3.9-6.89c1.28-2.18,2.82-4.24,4.42-6.19c1.49-1.85,3.13-3.55,4.9-5.11c1.49-1.34,3.18-2.39,4.98-3.26
	c2.57-1.16,5.08-0.85,7.88-0.8c1.13,0.23,1.98,0.9,2.8,1.64c1,0.93,1.54,2.16,2,3.39c0.46,1.54,0.62,3.16,0.62,4.78
	c0.05,1.98-0.21,3.96-0.46,5.94c-0.31,2.39-0.92,4.73-1.49,7.07c-0.67,2.78-1.59,5.47-2.62,8.15c-1.05,2.93-2.29,5.81-3.67,8.64
	c-1.33,2.88-2.75,5.68-4.16,8.51c-1.46,2.8-2.95,5.6-4.57,8.3c-1.57,2.7-3.36,5.27-5.29,7.76c-1.77,2.39-3.8,4.6-5.83,6.79
	c-1.77,2.03-3.9,3.67-6.19,5.11c-1.05,0.64-2.18,1.18-3.41,1.47c-0.8,0.15-0.38-0.03-0.69,0.13c-0.82-0.23-1.75-0.28-2.46-0.72
	c-0.21-0.13,0.41-0.28,0.59-0.44c0.49-0.41,0.8-1,1.13-1.54c0.64-0.98,1.39-1.88,2.18-2.7c1.13-1.18,2.41-2.16,3.72-3.11
	c1.75-1.16,3.65-2.06,5.55-2.9c1.98-0.9,4.06-1.59,6.16-2.16c1.77-0.49,3.57-0.77,5.42-0.82c2.7-0.05,5.39-0.64,7.45,1.21
	c0.92,0.87,1.49,2.03,1.87,3.21c0.36,1.44,0.33,2.88,0.28,4.34c-0.15,1.7-0.56,3.34-1.16,4.93c-0.72,1.85-1.64,3.57-2.67,5.24
	c-1.13,1.82-2.46,3.55-3.88,5.17c-1.44,1.72-2.98,3.32-4.52,4.93c-1.67,1.72-3.49,3.24-5.39,4.7c-1.93,1.49-4.03,2.78-6.11,4.06
	c-1.9,1.23-3.88,2.34-5.98,3.21c-2.85,1.21-5.08,0.9-8.16,0.64c0.03-0.13,0.05-0.26,0.05-0.39c-0.03-0.05-0.38-0.93-0.38-0.95
	c-0.21-0.62-0.28-1.21-0.33-1.88c0-1.7,0.44-3.37,0.85-5.01c0.57-2.31,1.36-4.55,2.23-6.76c1.26-2.88,2.72-5.65,4.26-8.4
	c1.8-3.19,3.9-6.19,6.03-9.2c2.18-2.98,4.39-5.99,6.6-9c2.16-2.98,4.36-5.94,6.6-8.87c2.18-2.85,4.52-5.6,6.91-8.28
	c2.13-2.39,4.54-4.5,6.96-6.55c1.9-1.54,3.9-2.9,6.03-4.06c1.46-0.8,3.03-1.34,4.67-1.57c1.93-0.21,3.93-0.57,5.47,0.64
	c0.77,0.75,1.21,1.62,1.51,2.6c0.44,1.29,0.36,2.57,0.31,3.88c-0.21,1.57-0.26,3.11-0.51,4.68c-0.23,2.03-0.95,3.93-1.69,5.86
	c-0.9,2.08-1.69,4.21-2.54,6.32c-0.98,2.31-2,4.6-3.03,6.89c-1.1,2.42-2.16,4.88-3.23,7.35c-1.08,2.62-2.29,5.24-3.47,7.84
	c-1.23,2.65-2.52,5.24-3.83,7.84c-1.23,2.42-2.44,4.83-3.62,7.25c-1.16,2.16-2.23,4.37-3.29,6.55c-1.03,1.77-2.11,3.52-3.26,5.22
	c-0.62,0.98-1.31,1.93-1.69,3.01c-0.21,0.59-0.05,1.03,0.46,1.36c0.33,0.13,0.67,0.15,1.03,0.18c0.13,0,0.54,0,0.39,0
	c-2.41-0.18-3.34-0.13-1.72-0.18c1.08-0.13,1.98-0.69,2.88-1.21c1.08-0.62,2.13-1.31,3.13-2.06c1.1-0.8,2.05-1.77,3.03-2.7
	c1.1-1,2.05-2.13,3-3.26c0.95-1.34,1.95-2.62,2.95-3.91c1.05-1.39,2.16-2.7,3.16-4.11c1.03-1.44,2.05-2.88,3.11-4.29
	c1.03-1.39,2.08-2.75,3.08-4.14c0.92-1.34,1.8-2.72,2.67-4.09c0.85-1.36,1.69-2.72,2.49-4.11c0.8-1.34,1.57-2.67,2.18-4.09
	c0.64-1.36,1.16-2.8,1.77-4.19c0.59-1.23,1-2.54,1.23-3.88c0.18-1.18,0.21-2.39,0.15-3.6c-0.03-1.05-0.23-2.06-0.57-3.06
	c-0.33-0.87-0.8-1.67-1.41-2.36c-0.69-0.77-1.52-1.36-2.34-2c-1.08-0.85-2.13-1.72-3.16-2.67c-1.18-1.26-2.34-2.57-3.44-3.91
	c-1.33-1.64-2.57-3.37-3.75-5.14c-1.31-1.98-2.54-3.98-3.77-6.01c-1.33-2.16-2.57-4.37-3.83-6.58c-1.44-2.42-2.85-4.83-4.16-7.32
	c-1.33-2.62-2.52-5.29-3.52-8.04c-0.98-2.6-2-5.17-2.93-7.76c-0.82-2.39-1.67-4.81-2.44-7.22c-0.85-2.13-1.33-4.34-1.85-6.58
	c-0.36-1.88-0.62-3.75-0.72-5.65c-0.05-1.44,0.15-2.88,0.54-4.29c0.26-0.95,0.64-1.85,1.18-2.7c0.38-0.59,0.92-1,1.54-1.36
	c1.67-0.54,3.57-0.57,5.24,0c0.92,0.31,1.82,0.72,2.67,1.23c0.95,0.57,1.75,1.31,2.54,2.06c1,0.98,1.9,2.03,2.75,3.14
	c1.18,1.47,2,3.14,2.9,4.75c1.03,2,2.08,4.01,3.11,5.99c1.16,2.26,2.29,4.55,3.54,6.73c1.46,2.47,3.13,4.78,4.8,7.09
	c1.93,2.57,4.08,4.93,6.32,7.22c2.59,2.6,5.57,4.65,8.78,6.43c3.9,2.06,8.11,3.42,12.38,4.6c4.57,1.26,9.29,1.8,14.04,2.06
	c5.62-0.05,16.92,0.49-8.47-0.05c-0.77-0.03,1.57-0.1,2.34-0.15c1.8-0.18,3.03-0.33,4.8-0.57c5.11-0.67,10.12-1.77,15.1-3.06
	c5.26-1.41,10.45-3.08,15.61-4.83c5.24-1.8,10.42-3.75,15.64-5.68c4.67-1.72,9.29-3.62,13.86-5.63c3.54-1.54,6.98-3.32,10.27-5.35
	c2.11-1.36,3.95-3.06,5.49-5.01c1.05-1.34,1.31-2.78,0.85-4.39c-0.72-1.52-1.87-2.72-3.13-3.86c-1.26-1.16-2.59-2.21-3.98-3.24
	c-1.28-0.98-2.64-1.82-4.03-2.65c-1.36-0.72-2.77-1.31-4.24-1.8c-1.36-0.41-2.75-0.67-4.16-0.82c-1.64-0.13-4.88-0.15,2.52-0.05
	c0.23,0-0.46,0-0.69,0.03c-0.62,0.03-0.8,0.05-1.41,0.1c-1.41,0.13-2.8,0.41-4.16,0.82c-1.18,0.33-2.26,0.87-3.31,1.52
	c-0.9,0.62-1.82,1.23-2.62,1.98c-0.72,0.67-1.28,1.34-1.49,2.31l-0.08,0.51l-3.75-0.15l0,0l0.38-0.51c0.62-0.8,1.16-1.59,1.72-2.39
	c0.64-0.77,1.28-1.57,2.13-2.11c0.92-0.67,1.87-1.26,2.93-1.67c1.16-0.46,2.34-0.85,3.57-0.98c2.98-0.33,5.98-0.36,8.93-0.1
	c1.54,0.18,3.06,0.41,4.54,0.9c1.54,0.49,3.08,1.05,4.49,1.88c1.49,0.82,2.95,1.67,4.34,2.65c1.44,1,2.88,2.06,4.06,3.34
	c1.03,1.26,1.98,2.57,2.39,4.16c0.46,1.57,0.59,3.19,0.31,4.81c-0.36,2.03-1.26,3.83-2.46,5.5c-1.69,2.31-3.67,4.34-5.98,6.01
	c-3.36,2.36-6.93,4.39-10.65,6.17c-4.6,2.21-9.32,4.21-14.12,5.96c-5.26,1.85-10.58,3.57-16,4.93c-5.31,1.31-10.65,2.47-16.1,3.14
	c-10.24,1.21-20.57,1.23-30.86,0.67c-4.39-0.44-8.75-1.16-12.97-2.57c-3.62-1.31-7.14-2.85-10.22-5.22
	c-2.64-2.06-5.16-4.27-7.29-6.84c-1.93-2.36-3.7-4.83-5.21-7.48c-1.39-2.34-2.62-4.73-3.72-7.22c-0.98-2.26-2-4.5-2.72-6.84
	c-0.62-2-1.23-4.01-1.75-6.04c-0.41-1.59-0.87-3.19-1.31-4.75c-0.41-1.11-0.8-2.21-1.59-3.11c-0.67-0.75-1.41-1.47-2.23-2
	c-0.8-0.51-1.59-1-2.52-1.16c-0.44-0.05-1.77-0.05-1.33-0.1c4.83-0.49,2.46-0.15,1.39-0.05c-0.64,0.21-1.13,0.51-1.26,1.21
	c-0.13,0.85,0.08,1.77,0.26,2.6c0.38,1.41,0.9,2.8,1.36,4.19c0.62,1.88,1.26,3.73,2.08,5.53c0.92,2.18,2.03,4.32,2.9,6.53
	c1.05,2.39,2.13,4.78,3.23,7.17c1.16,2.57,2.23,5.17,3.44,7.71c1.26,2.65,2.39,5.32,3.49,8.02c0.95,2.47,1.9,4.93,3.08,7.32
	c1.16,2.18,2.29,4.37,3.34,6.58c1,2.03,2.03,4.03,3,6.07c0.82,1.72,1.62,3.44,2.49,5.17c0.67,1.34,1.33,2.67,2.21,3.91
	c0.62,0.95,1.23,1.9,2,2.72c0.64,0.69,1.26,1.39,1.93,2.06c0.64,0.77,1.28,1.54,1.69,2.47c0.46,1,0.87,2.06,1.08,3.16
	c0.18,1.21,0.23,2.47,0.15,3.68c-0.1,1.34-0.23,2.67-0.51,3.98c-0.38,1.46-1,2.88-1.62,4.27c-0.69,1.36-1.33,2.75-2.03,4.11
	c-0.74,1.41-1.51,2.8-2.36,4.16c-0.85,1.36-1.75,2.72-2.62,4.09c-0.87,1.41-1.77,2.8-2.7,4.16c-0.98,1.49-2,2.93-3.11,4.32
	c-1.1,1.36-2.13,2.78-3.24,4.11c-1.1,1.36-2.23,2.67-3.47,3.91c-1.08,1.16-2.18,2.26-3.34,3.32c-1.1,1-2.29,1.9-3.52,2.7
	c-1.1,0.77-2.23,1.52-3.44,2.08c-1.1,0.54-2.23,0.98-3.44,1.26c-1.49,0.57-3.49,0.46-4.9-0.33c-0.54-0.39-0.95-0.9-1.23-1.49
	c-0.46-1.03-0.82-2.06-0.87-3.19c-0.08-1.8,0.23-3.62,0.72-5.37c0.82-2.18,1.69-4.37,2.46-6.58c0.9-2.44,1.85-4.88,2.8-7.3
	c1.03-2.67,2.16-5.29,3.39-7.89c1.28-2.62,2.57-5.24,3.93-7.84c1.26-2.44,2.59-4.86,3.83-7.3c1.21-2.31,2.39-4.6,3.62-6.86
	c1.16-2.08,2.36-4.11,3.29-6.27c0.98-1.95,1.9-3.91,3.06-5.76c0.74-1.46,1.54-2.9,1.87-4.52c0.31-1.26,0.51-2.52,0.69-3.78
	c0.08-0.82,0.18-1.82-0.51-2.42c-0.38-0.23-0.72-0.36-1.16-0.41c-0.18-0.03-0.72-0.03-0.54-0.03c3.08-0.05,3.49-0.13,2.29,0.03
	c-0.98,0.33-1.8,0.9-2.52,1.64c-1.21,1.26-2.26,2.67-3.21,4.16c-1.49,2.21-2.9,4.47-4.47,6.66c-1.95,2.78-3.85,5.55-5.83,8.3
	c-2.18,2.93-4.31,5.91-6.5,8.87c-2.18,2.96-4.34,5.96-6.39,9c-2.18,3.08-4.34,6.17-6.68,9.12c-2.13,2.75-4.29,5.47-6.44,8.22
	c-1.72,2.13-3.41,4.29-5.01,6.55c-1.08,1.57-2.11,3.19-3.06,4.83c-0.23,0.33-1.67,2.08-1.18,2.52c0.13,0.13,0.36,0.15,0.54,0.23
	c-3.54,0.26-2.85,0.51-1.21-0.95c1.52-1.16,3.13-2.18,4.67-3.29c1.85-1.36,3.67-2.72,5.49-4.09c1.95-1.49,3.93-2.96,5.78-4.57
	c1.75-1.49,3.36-3.14,4.93-4.83c1.46-1.65,2.88-3.32,4.21-5.06c1.21-1.67,2.49-3.29,3.49-5.09c0.85-1.52,1.72-3.08,2.18-4.78
	c0.41-1.34,0.67-2.75,0.56-4.14c-0.1-1.13-0.23-2.21-1.16-2.98c-2-1.13-6.65-0.85,0.74-0.8c-1.39,0.03-2.72,0.36-4.01,0.85
	c-1.75,0.64-3.44,1.44-5.13,2.21c-2,0.9-4.01,1.85-5.98,2.8c-1.85,0.85-3.67,1.77-5.39,2.83c-1.28,0.8-2.54,1.62-3.75,2.52
	c-0.38,0.31-0.9,0.67-1.18,1.08c-0.05,0.13-0.1,0.26-0.13,0.39c0,0.15,0.23,0.39,0.1,0.44c-0.95,0.26-1.98,0.23-2.95,0.36
	c0.18,0-0.26-0.26-0.33-0.41c-0.23-0.46-0.15-0.95,0-1.44c0.56-1.98,1.64-3.73,2.95-5.32c1.69-2.24,3.36-4.52,5.01-6.79
	c1.72-2.49,3.44-5.01,4.93-7.66c1.51-2.72,3.08-5.42,4.49-8.25c1.41-2.8,2.8-5.63,4.13-8.48c1.28-2.88,2.67-5.73,4.06-8.58
	c1.26-2.7,2.62-5.35,3.93-8.02c1.08-2.29,2.05-4.63,2.95-6.96c0.74-1.93,1.46-3.86,2-5.83c0.36-1.52,0.74-3.03,0.64-4.6
	c-0.08-1.16-0.39-2.29-1.13-3.21c-0.77-0.77-1.69-1.29-2.77-1.39c5.7-0.05,2.31-0.36,0.69,0.8c-1.26,0.9-2.26,2.03-3.21,3.24
	c-1.26,1.67-2.52,3.37-3.72,5.11c-1.36,2-2.72,4.03-3.98,6.12c-1.31,2.18-2.41,4.47-3.36,6.84c-1.08,2.52-2.11,5.04-3.08,7.61
	c-1.03,2.65-2,5.32-2.82,8.02c-0.8,2.6-1.54,5.19-2.03,7.84c-0.33,2.42-0.56,4.83-0.72,7.27c-0.13,2.06-0.23,4.14-0.15,6.19
	c-0.03,1.46-0.15,2.9-0.33,4.34c0.1,2.31,3,1.18-0.67,1.82c0.03-0.03,0.08-0.03,0.08-0.08c0-0.31-1.08-1.72-0.82-2.13
	c-0.31-2.08-0.08-4.16,0.38-6.22c0.39-2.47,0.69-4.93,1.1-7.4c0.51-2.54,1.03-5.09,1.49-7.63c0.49-2.47,0.95-4.93,1.31-7.4
	c0.46-2.39,0.9-4.81,1.39-7.2c0.44-2.21,0.92-4.42,1.28-6.66c0.33-2.08,0.62-4.14,1.05-6.19c0.38-1.82,0.77-3.65,1.08-5.5
	c0.33-1.62,0.59-3.26,1.05-4.83c0.33-1.26,0.72-2.52,0.85-3.8c0.18-0.98,0.23-1.93,0.31-2.9c0.05-0.33,0.15-0.77,0.03-1.08
	c-0.44-1.08-2.29-0.39,1.31-0.95c-0.05,0-0.1-0.03-0.13,0c-0.03,0,0.59,1.47,0.51,1.57c0.31,1.77,0.28,3.57,0.13,5.37
	c-0.31,2.83-0.98,5.55-1.69,8.3c-0.72,3.19-1.41,6.4-1.98,9.61c-0.72,3.67-1.41,7.35-2.39,10.97c-1.13,3.75-2.31,7.5-3.39,11.28
	c-1.16,3.75-2.21,7.5-3.34,11.23c-1.16,3.65-2.41,7.27-3.62,10.92c-1.21,3.47-2.41,6.94-3.88,10.31c-1.41,3.26-2.88,6.53-4.57,9.66
	c-1.69,3.14-3.41,6.27-5.47,9.2c-2.03,2.75-4.08,5.5-6.29,8.12c-2.05,2.34-4.16,4.65-6.57,6.66c-1.93,1.62-3.93,3.16-6.08,4.5
	c-1.69,1-3.44,1.93-5.39,2.34c-2.1,0.36-4.54,0.87-6.34-0.49c-1.41-1.11-2.44-2.52-2.95-4.27c-0.77-3.08-0.82-6.19-0.26-9.33
	c0.64-4.16,1.59-8.25,2.8-12.29c1.33-4.42,2.75-8.84,4.65-13.06c1.85-4.14,3.83-8.22,5.8-12.31c1.87-3.98,3.72-7.99,5.83-11.85
	c2.03-3.75,4.03-7.5,6.03-11.28c1.87-3.6,3.8-7.17,5.7-10.77c1.82-3.5,3.8-6.91,5.75-10.33c1.77-2.96,3.57-5.89,5.14-8.92
	c1.31-2.57,2.57-5.17,3.85-7.74c1.16-2.18,2.31-4.34,3.36-6.58c0.87-1.77,1.82-3.5,2.88-5.17c0.59-1.05,1.41-2.13,1.62-3.34
	c-1.05-1.8,2.52-1.67,2.31-0.08c0.03,1.59-0.44,3.14-1.03,4.6c-1.1,2.67-2.59,5.11-4.08,7.58c-1.75,2.98-3.52,5.94-5.37,8.87
	c-2.05,3.19-4.11,6.4-6.11,9.66c-2.16,3.47-4.29,6.94-6.55,10.33c-2.34,3.5-4.65,6.99-6.96,10.51c-2.31,3.39-4.54,6.84-6.86,10.25
	c-2.21,3.34-4.47,6.68-6.68,10.02c-2.11,3.16-4.16,6.32-6.24,9.48c-1.93,2.93-3.9,5.86-6.21,8.51c-1.75,2.13-3.57,4.21-5.55,6.14
	c-1.33,1.31-2.72,2.57-4.24,3.65c-1.67,1.31-3.57,0.98-4.54-0.64c-0.74-1.77-0.49-3.65,0.03-5.47c0.85-2.49,1.72-4.99,2.57-7.51
	c0.92-2.67,1.93-5.35,2.85-8.02c1.05-2.83,2.16-5.6,3.31-8.38c1.08-2.88,2.29-5.73,3.52-8.53c1.28-2.88,2.54-5.73,3.88-8.56
	c1.33-2.83,2.7-5.65,4.06-8.48c1.51-2.98,3.03-5.96,4.83-8.79c1.8-2.93,3.77-5.76,5.93-8.43c1.85-2.44,3.83-4.83,5.85-7.14
	c1.85-2.08,3.75-4.11,5.78-6.01c1.75-1.62,3.52-3.24,5.34-4.81c1.36-1.13,2.77-2.21,4.18-3.29c2.64-2.13-1.46-1.21,3.52-1.98
	c0.08,0.59-0.64,1.13-0.98,1.49c-1.08,0.85-2.29,1.49-3.36,2.34c-1.1,0.8-2.18,1.65-3.26,2.52c-1.13,0.9-2.23,1.88-3.39,2.75
	c-1.21,0.9-2.41,1.82-3.67,2.67c-0.69,0.46-2.26,1.16-2.54,1.9c2.36,0.98-3.57,1.18-1,0c1.03-0.75,2.05-1.46,3.16-2.06
	c2-1.11,4.08-2.08,6.08-3.21c2.29-1.23,4.57-2.47,6.83-3.73c2.36-1.34,4.72-2.7,7.03-4.11c2.18-1.26,4.39-2.49,6.44-3.98
	c1.67-1.26,3.31-2.54,4.88-3.91c1.28-1.21,2.54-2.47,3.72-3.78c0.82-0.9,1.77-1.77,2.34-2.85c0.23-1.05-0.92-1-1.67-1
	c4.65,0.03,2.49-0.08,0.57,0.85c-1.72,0.57-3.47,1.03-5.21,1.59c-1.77,0.62-3.57,1.23-5.31,1.98c-1.72,0.75-3.41,1.54-5.08,2.42
	c-1.64,0.87-3.29,1.72-4.93,2.6c-1.44,0.8-2.85,1.59-4.31,2.36c-1.08,0.59-2.21,1.13-3.21,1.82c-2.59,1.75,1.23,1.34-3.59,1.85
	c0.31,0,0.31-0.72,0.49-0.93c0.44-1.13,0.9-2.24,1.62-3.21c1.31-1.88,2.88-3.52,4.47-5.14c1.82-1.77,3.62-3.52,5.57-5.14
	c1.59-1.39,3.16-2.78,4.88-3.98c0.98-0.75,2.26-1.44,2.72-2.62c-0.39-2,3.24-1.67,2.64-0.39c-0.41,1.11-1.46,1.88-2.36,2.57
	c-1.67,1.08-3.36,2.16-5.03,3.29c-1.62,1.11-3.26,2.18-4.83,3.42c-1.36,1.05-2.62,2.21-3.9,3.34c-1.1,0.98-2.23,1.93-3.36,2.88
	c-0.72,0.59-1.52,1.21-2,2c-0.23,0.69,0.8,0.67,1.26,0.72L325.77,217.22L325.77,217.22z"/>
<path d="M417.63,96.21c4.06,0.31,1.1-0.39,0.51,1.23c-0.18,1,0.33,1.98,0.74,2.85c0.82,1.57,2.11,2.8,3.36,4.01
	c2.18,1.88,4.7,3.32,7.19,4.7c3.57,1.95,7.32,3.47,11.12,4.86c4.78,1.72,9.68,2.98,14.63,4.03c5.39,1.21,10.86,1.98,16.36,2.6
	c5.67,0.59,11.4,0.87,17.1,1.08c2.13,0.08,3.49,0.13,5.62,0.15c0.92,0,3.72,0.03,2.8,0.03c-29.37,0.03-16.41,0.03-9.91-0.13
	c5.57-0.15,11.14-0.62,16.69-1.16c5.47-0.59,10.94-1.26,16.41-1.9c8.91-1.03,17.87-0.62,26.8-0.54c2.26,0.28,4.24,1.13,5.98,2.54
	c1.59,1.34,2.52,3.14,3.18,5.06c0.74,2.18,0.74,4.42,0.44,6.66c-0.49,2.47-1.59,4.73-2.9,6.86c-1.44,2.31-3.36,4.29-5.42,6.04
	c-2.41,2-5.21,3.44-8.04,4.73c-3.03,1.34-6.19,2.26-9.4,3.03c-3.08,0.75-6.21,1.18-9.35,1.54c-5.06,0.62-10.14,0.39-15.2,0.39
	c-1.21-0.13-2.21-0.59-3.08-1.39c-0.69-0.72-1.13-1.59-1.41-2.52c-0.26-0.95-0.28-1.9-0.21-2.85c0.13-1.13,0.59-2.13,1.18-3.08
	c0.77-1.08,1.72-1.95,2.72-2.8c1.05-0.85,2.18-1.59,3.34-2.29c1.16-0.64,2.36-1.16,3.62-1.59c1.08-0.33,2.18-0.57,3.31-0.67
	c1.98-0.15,3.98-0.21,5.93-0.03c0.85,0.03,1.64,0.31,2.44,0.57l-2.7,0.36l0,0c-0.9-0.21-1.8-0.44-2.75-0.46
	c-1.08-0.05-3.24-0.05,1.67-0.05c0.46,0-1.82,0-1.39,0.08c-0.95,0.13-1.87,0.31-2.77,0.67c-1.05,0.41-2.05,0.98-3,1.57
	c-1.13,0.69-2.23,1.41-3.26,2.26c-1.05,0.85-2.11,1.67-3.03,2.65c-0.8,0.87-1.59,1.8-2.05,2.9c-0.31,0.9-0.41,1.77,0.05,2.65
	c0.56,0.98,1.26,1.8,2.36,2.21c1.85,0.72,3.83,0.82,5.78,0.75c-12.43-0.08-3.57,0.08-0.69-0.62c2.72-0.44,5.47-0.93,8.14-1.59
	c3.06-0.82,6.08-1.7,9.01-2.9c3.03-1.29,6.01-2.72,8.83-4.42c2.49-1.59,4.9-3.32,6.75-5.65c1.54-1.98,2.95-4.09,3.75-6.5
	c0.72-2.01,1.26-4.14,0.74-6.25c-0.77-2.08-2.21-3.6-4.26-4.47c-3.18-1.26-6.57-1.59-10.01-1.54c20.26,0.05,12.45-0.15,8.88,0.1
	c-2.49,0.21-4.98,0.62-7.45,1c-5.01,0.82-10.01,1.57-15.07,2.13c-5.44,0.64-10.89,1.16-16.38,1.36c-11.71,0.46-23.47,0.36-35.2-0.03
	c-5.49-0.26-11.01-0.57-16.46-1.34c-5.01-0.72-10.01-1.57-14.87-3.01c-3.93-1.28-7.83-2.7-11.45-4.7c-2.72-1.54-5.34-3.26-7.55-5.47
	c-1.49-1.57-2.9-3.21-3.8-5.19c-0.64-1.36-1.16-2.78-1.16-4.32c0.03-1.08,0.15-2.13,0.72-3.08c1.23-1.85,1.03-1.49,4.11-1.41
	L417.63,96.21L417.63,96.21z"/>
<path d="M345.64,105.74c-0.31-1.16-0.26-2.29,0-3.47c0.56-1.85,1.67-3.44,2.75-5.04c1.41-2.08,3.13-3.88,4.96-5.6
	c2.16-2.06,4.6-3.73,7.09-5.32c2.62-1.7,5.42-3.03,8.29-4.24c2.85-1.18,5.85-1.88,8.91-2.36c5.88-0.67,11.89-0.72,17.79-0.26
	c2.93,0.26,5.8,0.9,8.6,1.75c2.9,0.9,5.65,2.11,8.4,3.37c2.7,1.31,5.31,2.72,7.88,4.27c2.54,1.52,4.96,3.19,7.39,4.83
	c2.39,1.67,4.72,3.37,7.11,5.01c2.44,1.72,4.98,3.29,7.6,4.73c2.88,1.57,5.93,2.72,9.01,3.88c3.21,1.16,6.5,2.18,9.81,3.11
	c3.18,0.95,6.44,1.64,9.73,2.21c3.29,0.54,6.6,0.8,9.91,0.9c6.21,0.03-5.06,0-7.6,0c-0.57-0.03,1.1-0.03,1.67-0.05
	c1.69-0.03,3.36-0.13,5.06-0.21c3.44-0.21,6.83-0.75,10.19-1.44c3.39-0.72,6.73-1.62,10.01-2.7c2.88-0.98,5.67-2.18,8.42-3.47
	c2.39-1.11,4.75-2.31,7.06-3.6c1.95-1.1,3.85-2.26,5.65-3.65c1.36-1,2.49-2.18,3.39-3.62c0.57-1.05,1.03-2.21,1.21-3.39
	c0.18-0.95,0.28-1.9,0.28-2.88c0.1-0.62,0.08-1.23,0.08-1.85c0.05-0.33-0.23-0.64-0.49-0.8l1.44-0.13l0,0
	c0.31,0.23,0.46,0.59,0.72,0.85c0.49,0.57,0.82,1.23,1.13,1.9c0.28,0.95,0.54,1.93,0.49,2.96c-0.08,1.18-0.05,2.36-0.41,3.52
	c-0.38,1.39-0.87,2.78-1.75,3.93c-1.18,1.52-2.52,2.88-4.11,3.96c-1.87,1.34-3.83,2.6-5.83,3.78c-2.31,1.36-4.67,2.67-7.14,3.73
	c-2.88,1.26-5.78,2.34-8.83,3.01c-3.39,0.75-6.83,1.36-10.3,1.59c-7.09,0.46-14.17,0.44-21.26,0.23c-3.34-0.18-6.65-0.46-9.94-1.03
	c-3.36-0.59-6.73-1.34-10.01-2.29c-3.16-0.98-6.29-2-9.35-3.29c-2.8-1.21-5.52-2.54-8.14-4.14c-2.46-1.52-4.88-3.14-7.27-4.83
	c-2.41-1.67-4.8-3.34-7.24-4.99c-2.46-1.64-4.96-3.29-7.52-4.75c-2.57-1.52-5.19-2.96-7.88-4.16c-2.67-1.21-5.37-2.36-8.14-3.26
	c-2.7-0.77-5.44-1.41-8.24-1.57c-4-0.23-1.77-0.08,6.39-0.13c0.44,0-0.92,0-1.36,0c-1.03,0.03-1.82,0.08-2.82,0.15
	c-0.46,0.05-0.92,0.1-1.39,0.15c-2.82,0.44-5.6,1.13-8.24,2.21c-2.85,1.18-5.6,2.57-8.27,4.09c-2.67,1.59-5.24,3.29-7.73,5.14
	c-2.31,1.7-4.6,3.44-6.78,5.32c-1.72,1.49-3.29,3.11-4.83,4.78c-1.1,1.08-2.29,2.06-3.29,3.21L345.64,105.74L345.64,105.74z"/>
<path d="M258.61,14.34c2.16,0.13,4.31,0.41,6.47,0.72c4.13,0.64,8.16,1.85,12.12,3.19c5.14,1.77,10.19,3.75,15.25,5.71
	c5.8,2.26,11.63,4.47,17.46,6.63c6.5,2.37,13.07,4.47,19.64,6.53c6.96,2.13,13.94,4.24,20.9,6.43c6.57,2.08,13.17,4.19,19.77,6.27
	c5.91,1.88,11.84,3.65,17.74,5.55c5.03,1.57,10.04,3.24,15.05,4.78c3.88,1.16,7.7,2.42,11.58,3.57c2.59,0.82,5.24,1.44,7.93,1.77
	c0.36,0.05,0.72,0.08,1.1,0.1c5.08,0.44-10.53,0.21-4.52,0.1c0.44-0.03,0.87-0.03,1.28-0.05c0.41-0.03,0.82-0.05,1.23-0.1
	c1.75-0.1,3.41-0.51,4.98-1.23c0.9-0.51,1.41-1.11,0.8-2.03c-0.98-1.05-2.23-1.8-3.41-2.6c-1.72-1.05-3.44-2.11-5.16-3.14
	c-1.98-1.13-3.88-2.39-5.8-3.57c-2.08-1.28-4.21-2.49-6.26-3.78c-2.21-1.31-4.44-2.6-6.68-3.88c-2.36-1.34-4.78-2.62-7.21-3.86
	c-2.46-1.31-5.01-2.39-7.57-3.47c-2.62-1.05-5.26-2.06-7.88-3.06c-2.08-0.72-4.03-1.7-5.93-2.78c-0.87-0.57-1.87-1.08-2.39-2
	c-0.18-0.28,0.08-0.39,0.13-0.59c0.03-0.21-0.18-0.13,0.03-0.36c2.13-0.33,4.24-0.08,6.34,0.1c2.36,0.28,4.72,0.59,7.09,1
	c2.82,0.44,5.67,0.95,8.47,1.52c2.8,0.57,5.57,1.26,8.32,1.98c2.64,0.69,5.21,1.57,7.78,2.47c2.34,0.82,4.65,1.7,6.96,2.54
	c2.13,0.8,4.26,1.62,6.42,2.36c1.57,0.51,3.08,1.18,4.47,2.08c0.41,0.36,1.31,0.77,1.23,1.44c-0.26,0.08,0.05,0.18,0.03,0.18
	c-3.85,0.15-2,0.44-3.62-0.33c-1.21-0.41-2.39-0.87-3.59-1.31c-1.62-0.59-3.26-1.18-4.9-1.77c-2.21-0.77-4.47-1.44-6.73-2.11
	c-2.57-0.85-5.21-1.52-7.83-2.16c-2.93-0.75-5.88-1.31-8.86-1.85c-2.98-0.51-5.98-0.85-8.99-1.08c-2.9-0.21-5.83-0.26-8.73-0.26
	c16.69-0.1,4.67,0,0.8,0.1c-2.67,0.08-5.34,0.18-8.04,0.36c-2.39,0.13-4.75,0.33-7.14,0.57c-2.11,0.21-4.21,0.44-6.32,0.64
	c-1.95,0.21-3.93,0.36-5.88,0.54c-1.87,0.15-3.72,0.28-5.6,0.41c-3.59,0.18-7.16,0.1-10.76,0.1c-1.54-0.05-3.11-0.1-4.65-0.23
	c-1.46-0.1-2.93-0.28-4.39-0.46c-1.46-0.13-2.9-0.46-4.34-0.77c-1.49-0.33-2.95-0.82-4.39-1.34c-1.44-0.49-2.82-1.08-4.21-1.7
	c-1.28-0.59-2.54-1.23-3.83-1.85c-1.21-0.64-2.44-1.23-3.62-1.9c-1.16-0.62-2.36-1.16-3.39-1.95c-0.77-0.59-1.36-1.34-1.87-2.16
	c-0.46-0.72-0.49-1.59-0.46-2.42c0.1-1,0.57-1.77,1.23-2.49c0.92-0.9,2.05-1.54,3.18-2.13c1.67-0.77,3.47-1.18,5.29-1.47
	c5.85-0.75,11.76-0.51,17.64-0.23c3.31,0.18,6.57,0.72,9.81,1.36c3.36,0.69,6.65,1.67,9.94,2.7c3.52,1.13,6.98,2.42,10.42,3.73
	c3.7,1.44,7.37,2.96,11.01,4.47c3.85,1.62,7.68,3.24,11.53,4.86c4.03,1.67,8.06,3.39,12.09,5.09c3.8,1.64,7.55,3.42,11.3,5.17
	c3.44,1.7,6.93,3.32,10.4,4.96c3.16,1.47,6.37,2.9,9.55,4.39c2.7,1.26,5.42,2.47,8.14,3.65c1.93,0.85,3.85,1.64,5.83,2.36
	c1.1,0.44,2.23,0.82,3.41,1.13c1.36,0.15,0.44,0.03-2.67,0.05c-0.21,0,0.44,0,0.67,0c0.49-0.03,0.95-0.08,1.44-0.18
	c0.56-0.18,0.82-0.46,0.67-1.05c-0.62-0.77-1.51-1.23-2.36-1.72c-1.44-0.85-2.93-1.64-4.39-2.47c-1.9-1-3.72-2.16-5.6-3.19
	c-2.08-1.18-4.24-2.26-6.37-3.37c-2.34-1.13-4.65-2.26-7.01-3.37c-2.29-1.16-4.6-2.21-6.91-3.32c-2.26-1.05-4.54-2.03-6.83-3.03
	c-2.26-0.98-4.52-1.93-6.8-2.8c-2.44-0.92-4.93-1.75-7.42-2.57c-2.44-0.77-4.88-1.52-7.32-2.26c-2.21-0.64-4.39-1.31-6.6-1.98
	c-2-0.59-4.03-1.16-6.06-1.67c-1.93-0.51-3.88-0.92-5.83-1.34c-2.08-0.44-4.19-0.69-6.32-0.8c-2.95-0.18-12.22-0.13,0.51-0.1
	c-2.21,0.03-4.42,0.15-6.62,0.26c-2.13,0.13-4.26,0.28-6.37,0.41c-2.16,0.13-4.29,0.26-6.42,0.36c-4.6,0.1-9.19,0.18-13.76-0.03
	c-2.18-0.08-4.36-0.26-6.55-0.49c-1.87-0.21-3.75-0.54-5.57-0.95c-1.54-0.39-3.03-0.95-4.47-1.59c-1.16-0.49-2.16-1.26-3.03-2.13
	c-0.69-0.69-1.16-1.47-1.52-2.36c-0.26-0.8-0.26-1.57-0.21-2.39c0.15-0.85,0.54-1.59,1-2.31c0.67-0.85,1.51-1.47,2.44-2.03
	c1.21-0.72,2.54-1.21,3.85-1.67c1.51-0.54,3.05-0.92,4.6-1.28c1.72-0.36,3.44-0.59,5.19-0.8c2-0.23,4.03-0.28,6.03-0.36
	c4.78-0.1,9.53-0.05,14.27,0.13c2.49,0.13,4.98,0.33,7.47,0.54c2.59,0.26,5.19,0.62,7.78,0.98c2.7,0.36,5.34,0.85,8.01,1.34
	c2.64,0.49,5.29,1.05,7.93,1.67c2.64,0.62,5.29,1.31,7.96,1.9c3.31,0.75,6.68,1.36,10.01,2.03l-11.17,1.49l0,0
	c-2.59-0.85-5.21-1.62-7.86-2.31c-2.57-0.69-5.16-1.34-7.75-1.9c-2.62-0.59-5.26-1.16-7.91-1.64c-2.57-0.49-5.16-0.93-7.75-1.34
	c-2.44-0.41-4.9-0.75-7.34-1c-2.36-0.23-4.7-0.44-7.06-0.57c-1.1-0.05-2.23-0.1-3.34-0.13c-0.39-0.03-1.46-0.03-1.1-0.03
	c4.24-0.03,8.65,0,5.01-0.03c-2.21,0.03-4.44,0.05-6.65,0.21c-2.03,0.15-4.03,0.28-6.03,0.62c-1.72,0.31-3.44,0.64-5.14,1.16
	c-1.51,0.46-3.05,0.92-4.57,1.52c-1.26,0.51-2.52,1.03-3.65,1.77c-0.74,0.54-1.44,1.18-1.67,2.08c-0.15,0.82,0.08,1.57,0.59,2.21
	c0.69,0.87,1.59,1.59,2.57,2.13c1.39,0.75,2.82,1.39,4.29,1.88c1.77,0.59,3.59,1.08,5.42,1.36c2.16,0.33,4.31,0.59,6.47,0.77
	c2.21,0.18,4.42,0.36,6.62,0.44c2.57,0.08,7.6,0.03-3.88,0.05c-2.44,0,1.72,0,2.23,0c0.36,0,0.72-0.03,1.08-0.03
	c2.18-0.05,4.36-0.21,6.55-0.31c2.13-0.13,4.26-0.26,6.37-0.44c2.13-0.15,4.29-0.26,6.42-0.31c4.54,0,9.11-0.18,13.66,0.18
	c2,0.21,4,0.51,5.96,0.95c2.08,0.39,4.13,0.85,6.19,1.31c2.23,0.51,4.44,1.05,6.68,1.62c2.46,0.62,4.93,1.21,7.37,1.88
	c2.52,0.72,5.03,1.44,7.5,2.26c2.36,0.82,4.7,1.7,7.01,2.67c2.31,0.92,4.6,1.85,6.91,2.8c2.34,1,4.67,2,7.01,3.06
	c2.34,1.05,4.65,2.21,6.96,3.32c2.18,1.11,4.34,2.24,6.42,3.5c1.85,1.11,3.7,2.24,5.47,3.47c1.41,1.08,2.9,2.11,4.16,3.37
	c0.85,0.85,1.69,1.72,2.34,2.72c0.31,0.64,0.62,1.26,0.46,1.98c0,0.46-0.1,0.9-0.39,1.28c-1.05,1.54-3.77,0.36-5.47,0.54
	c-2.13-0.1-4.24-0.36-6.32-0.82c-2.88-0.59-5.75-1.21-8.55-2.08c-3.31-1.05-6.6-2.24-9.83-3.5c-3.59-1.36-7.19-2.75-10.71-4.29
	c-3.8-1.59-7.52-3.26-11.32-4.86c-3.98-1.7-7.98-3.34-11.96-5.06c-3.85-1.7-7.7-3.37-11.5-5.17c-3.59-1.65-7.19-3.32-10.78-4.93
	c-3.36-1.54-6.75-3.06-10.17-4.52c-3.16-1.34-6.32-2.67-9.58-3.78c-3.08-1.05-6.21-1.95-9.4-2.62c-3.03-0.64-6.06-1.13-9.11-1.34
	c-0.49-0.03-0.95-0.05-1.41-0.08c-6.55-0.33,11.96-0.15,4.96-0.1c-0.51,0-1.03,0-1.54,0.03c-0.51,0.03-1,0.05-1.49,0.05
	c-2.57,0.18-5.11,0.41-7.57,1.03c-1.75,0.41-3.47,0.9-5.03,1.75c-1,0.54-2.08,1.13-2.59,2.18c-0.28,0.92,0.23,1.49,0.87,2.13
	c0.87,0.82,1.9,1.44,2.98,1.95c1.23,0.62,2.44,1.29,3.67,1.9c1.28,0.64,2.57,1.23,3.85,1.85c1.34,0.64,2.67,1.28,4.06,1.82
	c1.39,0.59,2.8,1.13,4.21,1.64c1.44,0.46,2.85,0.9,4.31,1.29c1.41,0.36,2.88,0.57,4.34,0.75c1.54,0.15,3.08,0.28,4.65,0.39
	c1.64,0.08,3.29,0.15,4.93,0.15c-9.65,0-2.7,0.05-0.49-0.15c1.77-0.1,3.54-0.28,5.31-0.44c1.85-0.18,3.7-0.36,5.55-0.57
	c1.95-0.23,3.88-0.46,5.83-0.72c2.08-0.28,4.13-0.54,6.24-0.75c2.36-0.21,4.75-0.41,7.14-0.51c5.8-0.31,11.63-0.36,17.46-0.26
	c3,0,6.03,0.08,9.04,0.31c2.98,0.23,5.98,0.57,8.91,1.18c2.67,0.57,5.31,1.23,7.91,2.06c2.23,0.72,4.47,1.47,6.62,2.39
	c1.64,0.69,3.26,1.49,4.8,2.39c1.13,0.64,2.29,1.28,3.41,1.95c0.82,0.46,1.67,0.98,2.52,1.41c0.15,0.08,0.31,0.15,0.46,0.18
	c0.21,0.08,0.82,0.08,0.62,0.18c-1.64,0.77-1.49,0.49-2.59,0.36c-1.52-0.23-3.03-0.64-4.52-1c-2.23-0.57-4.47-1.08-6.68-1.77
	c-2.36-0.75-4.7-1.52-7.06-2.29c-2.54-0.82-5.11-1.64-7.68-2.44c-2.72-0.85-5.44-1.67-8.19-2.36c-2.7-0.72-5.39-1.36-8.14-1.95
	c-2.29-0.54-4.57-1.11-6.86-1.75c-1.46-0.44-2.9-0.9-4.34-1.34c-0.46-0.15-0.9-0.31-1.36-0.36c-0.18-0.03-0.64-0.03-0.49-0.05
	c1.39-0.23,2.62-0.15,1.72-0.21c-0.41-0.18,1.67,0.46,1.77,0.39c2.03,0.44,4.06,0.92,6.06,1.54c2.67,0.77,5.37,1.57,8.01,2.49
	c2.67,0.93,5.31,1.93,7.88,3.11c2.49,1.13,4.95,2.29,7.34,3.57c2.31,1.23,4.57,2.52,6.78,3.96c2.05,1.31,4.11,2.62,6.16,3.96
	c1.93,1.23,3.83,2.52,5.67,3.83c1.69,1.21,3.39,2.36,4.95,3.68c1.26,1.03,2.54,2.06,3.52,3.37c0.69,0.85,1.31,1.77,1.36,2.93
	c-0.03,0.8,0.08,1.65-0.33,2.39c-0.46,0.87-1.28,1.46-2.18,1.82c-4.65,1.64-9.81,0.39-14.66,0.49c-3.98-0.23-7.93-0.72-11.89-1.36
	c-5.24-0.87-10.45-1.82-15.61-3.08c-6.03-1.41-12.02-2.9-18-4.45c-6.68-1.67-13.33-3.44-19.97-5.27
	c-6.96-1.98-13.89-3.98-20.77-6.19c-6.6-2.13-13.2-4.27-19.69-6.63c-5.85-2.16-11.66-4.39-17.36-6.91
	c-4.95-2.21-9.91-4.45-14.71-7.04c-3.7-1.98-7.34-4.01-10.91-6.19c-2-1.21-4-2.47-5.96-3.8c-0.67-0.44-1.36-0.85-2.08-1.26
	L258.61,14.34L258.61,14.34z"/>
<path d="M347.7,168.61c0,0-22.33-21.99-30.79-40.13c-8.47-18.14,10.01-42.88,28.87-19.24c9.62-15.39,30.41-12.65,33.1,3.3
	C381.57,128.47,361.55,162.56,347.7,168.61z"/>
</svg>
